<?xml version="1.0" encoding="utf-8"?>
<!DOCTYPE svg PUBLIC "-//W3C//DTD SVG 20010904//EN" "http://www.w3.org/TR/2001/REC-SVG-20010904/DTD/svg10.dtd">
<svg version="1.0" xmlns="http://www.w3.org/2000/svg" width="128pt" height="128pt" viewBox="0 0 128 128" style="" preserveAspectRatio="xMidYMid meet">
<g fill="#377AFFFF" stroke="#377AFFFF">
<path d="M 78.500 34.114 C 68.050 36.176 51.400 39.088 41.500 40.585 C 31.600 42.082 23.357 43.418 23.183 43.554 C 22.761 43.882 20.088 55.422 20.369 55.703 C 20.490 55.823 26.778 54.987 34.344 53.844 C 41.909 52.701 48.268 51.935 48.475 52.142 C 48.825 52.491 46.104 68.229 45.608 68.725 C 45.484 68.849 37.534 69.684 27.942 70.581 C 18.349 71.477 10.333 72.368 10.129 72.559 C 9.459 73.189 7.073 84.407 7.516 84.849 C 7.753 85.087 15.722 84.602 25.224 83.771 C 34.726 82.941 42.679 82.419 42.897 82.612 C 43.227 82.902 38.119 110.190 36.319 117.750 L 35.783 120.000 67.867 120.000 L 99.951 120.000 103.926 113.750 L 107.900 107.500 83.100 107.233 L 58.299 106.966 60.943 93.733 L 63.586 80.500 87.543 78.325 C 100.719 77.129 111.581 76.117 111.679 76.075 C 112.279 75.823 114.067 64.734 113.586 64.252 C 113.262 63.928 103.435 64.419 91.748 65.343 C 63.978 67.538 65.717 67.613 66.396 64.250 C 66.701 62.738 67.450 58.510 68.060 54.856 L 69.168 48.212 80.334 46.527 C 96.917 44.024 95.505 44.810 96.887 37.312 C 97.551 33.709 97.960 30.672 97.797 30.563 C 97.634 30.455 88.950 32.053 78.500 34.114 "/></g>
<g fill="#377AFFFF" stroke="#377AFFFF">
<path d="M 56.360 1.750 C 56.631 2.713 57.151 5.413 57.515 7.750 L 58.176 12.000 34.647 12.000 C 21.706 12.000 10.878 12.388 10.585 12.862 C 10.018 13.780 7.024 37.963 7.009 41.750 C 7.001 43.868 7.407 44.000 13.933 44.000 C 21.784 44.000 21.470 44.347 22.523 34.500 C 22.875 31.200 23.382 27.713 23.649 26.750 C 24.102 25.120 26.926 25.000 64.870 25.000 L 105.605 25.000 104.887 30.750 C 104.492 33.913 104.131 38.188 104.084 40.250 L 104.000 44.000 111.369 44.000 L 118.738 44.000 119.896 34.750 C 120.533 29.663 121.301 23.475 121.602 21.000 C 121.984 17.859 121.699 15.896 120.656 14.500 C 119.255 12.622 117.791 12.480 96.696 12.168 L 74.228 11.836 73.064 5.918 L 71.899 0.000 63.882 0.000 C 56.725 0.000 55.918 0.188 56.360 1.750 "/></g>
</svg>
