<?xml version="1.0" standalone="no"?><!DOCTYPE svg PUBLIC "-//W3C//DTD SVG 1.1//EN" "http://www.w3.org/Graphics/SVG/1.1/DTD/svg11.dtd"><svg t="1682487486589" class="icon" viewBox="0 0 1024 1024" version="1.1" xmlns="http://www.w3.org/2000/svg" p-id="2384" xmlns:xlink="http://www.w3.org/1999/xlink" width="81" height="81"><path d="M748.4 210.9H44c-11 0-40-9-40-40s9-40 40-40h704.4c11 0 40 9 40 40s-8.9 40-40 40z" fill="currentColor" p-id="2385"></path><path d="M396.2 915.1c-11 0-40-9-40-40V196.6c0-11 9-40 40-40s40 9 40 40v698.5c0 11.1-8.9 40-40 40z" fill="currentColor" p-id="2386"></path><path d="M996 498H578.8c-11 0-40-9-40-40s9-40 40-40H996c11 0 40 9 40 40s-8.9 40-40 40z" fill="currentColor" p-id="2387"></path><path d="M787.4 915.1c-11 0-40-9-40-40V481.4c0-11 9-40 40-40s40 9 40 40v413.8c0 11-8.9 19.9-40 19.9z" fill="currentColor" p-id="2388"></path></svg>